<?xml version="1.0" encoding="utf-8"?>
<!-- Generator: Adobe Illustrator 23.0.0, SVG Export Plug-In . SVG Version: 6.00 Build 0)  -->
<svg version="1.1" id="Layer_1" xmlns="http://www.w3.org/2000/svg" xmlns:xlink="http://www.w3.org/1999/xlink" x="0px" y="0px"
	 viewBox="0 0 400 400" style="enable-background:new 0 0 400 400;" xml:space="preserve">
<style type="text/css">
	.st0{fill:none;stroke:#749948;stroke-width:15.7;stroke-miterlimit:10;}
	.st1{fill:url(#SVGID_1_);}
	.st2{fill:#FFFFFF;}
	.st3{fill:#916C29;}
	.st4{fill:#6F8036;}
	.st5{fill:none;stroke:#54612B;stroke-width:3.6;stroke-linecap:round;stroke-linejoin:round;stroke-miterlimit:10;}
	.st6{fill:none;stroke:#41491F;stroke-width:8.6;stroke-linecap:round;stroke-linejoin:round;stroke-miterlimit:10;}
	.st7{fill:url(#SVGID_2_);}
	.st8{fill:#7F8E38;}
	.st9{fill:url(#SVGID_3_);}
	.st10{fill:url(#SVGID_4_);}
	.st11{fill:none;stroke:#FFFFFF;stroke-width:4;stroke-miterlimit:10;}
	.st12{fill:none;stroke:#41491F;stroke-width:2;stroke-linecap:round;stroke-linejoin:round;stroke-miterlimit:10;}
	.st13{fill:none;stroke:#647331;stroke-width:10;stroke-linecap:round;stroke-linejoin:round;stroke-miterlimit:10;}
	.st14{fill:none;stroke:#424D21;stroke-width:11.5;stroke-linecap:round;stroke-miterlimit:10;}
	.st15{fill:url(#SVGID_5_);}
	.st16{fill:#424D21;}
	.st17{fill:none;stroke:#7F8E38;stroke-width:4;stroke-miterlimit:10;}
	.st18{fill:#E5A1BD;}
	.st19{fill:url(#SVGID_6_);}
	.st20{fill:none;}
	.st21{fill:url(#SVGID_7_);}
	.st22{fill:url(#SVGID_8_);}
	.st23{fill:#AA1F44;}
	.st24{fill:none;stroke:#FFFFFF;stroke-width:4.2;stroke-miterlimit:10;}
	.st25{fill:none;stroke:#FFFFFF;stroke-width:4.2;stroke-miterlimit:10;stroke-dasharray:12.786,12.786;}
	.st26{fill:none;stroke:#FFFFFF;stroke-width:4.2;stroke-miterlimit:10;stroke-dasharray:12.9676,12.9676;}
	.st27{opacity:0.5;fill:#701431;enable-background:new    ;}
</style>
<ellipse transform="matrix(0.1602 -0.9871 0.9871 0.1602 -76.8197 161.3176)" class="st0" cx="56.39" cy="125.8" rx="42.49" ry="42.49"/>
<path class="st0" d="M382.92,204.72l-87.86,37.78c-4.39,1.6-10.62-4.63-13.9-13.74c-3.19-9.19-2.4-17.89,2-19.49l87.86-37.78
	L383,204.72H382.92z"/>
<path class="st0" d="M382.92,204.72l-87.86,37.78c-4.39,1.6-10.62-4.63-13.9-13.74c-3.19-9.19-2.4-17.89,2-19.49l87.86-37.78
	L383,204.72H382.92z"/>
<circle class="st0" cx="206" cy="224.37" r="151.76"/>
<linearGradient id="SVGID_1_" gradientUnits="userSpaceOnUse" x1="130.1065" y1="309.083" x2="281.8898" y2="46.1784" gradientTransform="matrix(1 0 0 -1 0 402)">
	<stop  offset="0" style="stop-color:#A0DBE6"/>
	<stop  offset="0.1" style="stop-color:#A4DCE1"/>
	<stop  offset="0.2" style="stop-color:#AFDDD3"/>
	<stop  offset="0.4" style="stop-color:#C0E0BA"/>
	<stop  offset="0.6" style="stop-color:#D5E597"/>
	<stop  offset="0.8" style="stop-color:#EEEA62"/>
	<stop  offset="1" style="stop-color:#FFF200"/>
</linearGradient>
<circle class="st1" cx="206" cy="224.37" r="151.76"/>
<path class="st2" d="M382.92,204.72l-87.86,37.78c-4.39,1.6-10.62-4.63-13.9-13.74c-3.19-9.19-2.4-17.89,2-19.49l87.86-37.78
	L383,204.72H382.92z"/>
<path class="st2" d="M382.92,204.72l-87.86,37.78c-4.39,1.6-10.62-4.63-13.9-13.74c-3.19-9.19-2.4-17.89,2-19.49l87.86-37.78
	L383,204.72H382.92z"/>
<path class="st3" d="M285.31,221.41l-28.2,12.14l2.8,8.79l28.12-12.14L285.31,221.41z M271.18,263.75l18.61,2.4l-1.92,5.99
	l-17.33-2.16L271.18,263.75z M314.15,267.5l-2.48-5.91l-2.08-0.48l0.64,5.99l-9.43-0.96l-1.6,6.07l21.01,4.55l5.91-8.15
	L314.15,267.5z M264.39,270.14l-12.54,55.19l5.83,0.48l16.13-54.08L264.39,270.14z"/>
<path class="st3" d="M290.98,271.1l-22.52,58.23l7.59,2.4l24.2-59.91L290.98,271.1z M316.22,277.01l-28.28,57.27l6.79,2.56
	l33.79-57.99L316.22,277.01z"/>
<path class="st4" d="M235.63,303.76c-6.23-5.27-13.98-19.17-19.81-36.26c-7.99-23.24-9.43-43.85-3.27-45.93
	c6.15-2.16,17.57,15.02,25.56,38.34c5.75,17.01,8.15,32.59,6.55,40.58l-6.07-2.96l-3.04,6.23L235.63,303.76z"/>
<path class="st5" d="M226.77,262.31l11.82,35.22"/>
<path class="st4" d="M235.63,303.76c-6.23-5.27-13.98-19.17-19.81-36.26c-7.99-23.24-9.43-43.85-3.27-45.93
	c6.15-2.16,17.57,15.02,25.56,38.34c5.75,17.01,8.15,32.59,6.55,40.58l-6.07-2.96l-3.04,6.23L235.63,303.76z"/>
<path class="st5" d="M226.77,262.31l11.82,35.22"/>
<path class="st6" d="M225.73,250.73c0,0,24.2,17.25,28.67-14.54 M233.24,311.03c-20.85,1.36-18.13-22.76-18.13-22.76"/>
<linearGradient id="SVGID_2_" gradientUnits="userSpaceOnUse" x1="2288.2419" y1="467.0914" x2="2328.3354" y2="467.0914" gradientTransform="matrix(-0.9603 0.279 -0.279 -0.9603 2557.1384 61.4057)">
	<stop  offset="0" style="stop-color:#798E39"/>
	<stop  offset="0.2" style="stop-color:#82993C"/>
	<stop  offset="0.7" style="stop-color:#96B045"/>
	<stop  offset="1" style="stop-color:#A0BA49"/>
</linearGradient>
<path class="st7" d="M221.89,225.01l7.59,50.88c1.18,8.73-4.93,16.77-13.66,17.97l-1.52,0.16c-8.68,1.14-16.65-4.92-17.89-13.58
	l-6.95-56.39L221.89,225.01L221.89,225.01z"/>
<path class="st8" d="M225.57,247.13l-33.07,4.55l-1.12-7.99l33.07-4.47L225.57,247.13z M227.72,263.43l-33.07,4.47l-1.04-7.91
	l33.07-4.47L227.72,263.43z M230.04,279.56l-33.15,4.55l-1.04-7.91l33.07-4.47L230.04,279.56z"/>
<path class="st6" d="M193.62,235.95c0,0,28.28,0.48,62.3-2.4"/>
<linearGradient id="SVGID_3_" gradientUnits="userSpaceOnUse" x1="67.5756" y1="70.5589" x2="308.7966" y2="70.5589" gradientTransform="matrix(1 0 0 -1 0 402)">
	<stop  offset="0" style="stop-color:#98AF4E"/>
	<stop  offset="1" style="stop-color:#5A7735"/>
</linearGradient>
<path class="st9" d="M206,376.13c38.11,0.06,74.83-14.29,102.8-40.18l-241.22-49.2c24.55,54.45,78.77,89.44,138.5,89.38H206z"/>
<linearGradient id="SVGID_4_" gradientUnits="userSpaceOnUse" x1="327.4077" y1="-134.0929" x2="465.2641" y2="-134.0929" gradientTransform="matrix(0.9537 0.3007 0.3007 -0.9537 -209.7119 19.7202)">
	<stop  offset="0" style="stop-color:#FFFFFF;stop-opacity:0"/>
	<stop  offset="1" style="stop-color:#FFFFFF"/>
</linearGradient>
<path class="st10" d="M177.32,270.14l9.98-20.45l-20.13,10.7l-16.37-15.9l2.8,15.97l-46.49,27.88L57.99,258l1.76,9.9l31.63,23.16
	l25.72,5.83l40.18-15.34l3.83,21.73l10.06-20.45l22.52,3.19L177.32,270.14z"/>
<path class="st11" d="M143.54,260.39l-13.66-4.55 M168.38,238.03l-2,14.3 M186.03,297.21l-11.02-9.27 M144.57,298.41l8.47-11.66"/>
<path class="st6" d="M190.26,308.32c5.35-20.93,24.04-19.97,24.04-19.97"/>
<path class="st3" d="M250.49,236.51c-0.4,0-0.8,0-1.2,0.16l0.08-0.16l-13.9,6.15l3.67,8.15l12.7-5.51h-0.16l1.68-0.72
	c1.04-0.8,1.68-2.16,1.76-3.59C255.03,238.49,252.99,236.51,250.49,236.51L250.49,236.51z"/>
<ellipse class="st2" cx="268.7" cy="232.44" rx="11.18" ry="11.18"/>
<ellipse class="st12" cx="268.7" cy="232.44" rx="11.18" ry="11.18"/>
<ellipse transform="matrix(0.9724 -0.2331 0.2331 0.9724 -48.9961 66.5003)" class="st2" cx="256.8" cy="240.5" rx="11.1" ry="11.1"/>
<ellipse transform="matrix(0.9724 -0.2331 0.2331 0.9724 -48.9961 66.5003)" class="st12" cx="256.8" cy="240.5" rx="11.1" ry="11.1"/>
<ellipse class="st2" cx="268.7" cy="232.44" rx="11.18" ry="11.18"/>
<ellipse class="st12" cx="268.7" cy="232.44" rx="11.18" ry="11.18"/>
<ellipse transform="matrix(0.9724 -0.2331 0.2331 0.9724 -48.9961 66.5003)" class="st2" cx="256.8" cy="240.5" rx="11.1" ry="11.1"/>
<ellipse transform="matrix(0.9724 -0.2331 0.2331 0.9724 -48.9961 66.5003)" class="st12" cx="256.8" cy="240.5" rx="11.1" ry="11.1"/>
<path class="st13" d="M277.17,158.71c19.97-5.99,38.34-23.32,47.45-47.45c12.3-32.51,3.99-66.7-18.21-82.27"/>
<path class="st13" d="M268.94,147.85c14.3-15.1,21.57-39.14,17.57-64.7c-5.35-34.35-29.55-59.91-56.71-62.38"/>
<path class="st14" d="M263.27,132.59c-9.84-11.55-24.46-17.92-39.62-17.25"/>
<linearGradient id="SVGID_5_" gradientUnits="userSpaceOnUse" x1="2373.2163" y1="518.0477" x2="2536.0767" y2="518.0477" gradientTransform="matrix(-0.9632 0.2689 -0.2689 -0.9632 2694.6179 21.7599)">
	<stop  offset="0" style="stop-color:#798E39"/>
	<stop  offset="0.2" style="stop-color:#7F963B"/>
	<stop  offset="0.7" style="stop-color:#8CA440"/>
	<stop  offset="1" style="stop-color:#91AA42"/>
</linearGradient>
<path class="st15" d="M204.96,228.44l-42.73,0.32c-24.61,0.18-44.74-19.56-45.05-44.17v-6.39c-0.13-24.58,19.59-44.66,44.17-44.97
	l74.52-0.72c24.64-0.18,44.79,19.61,45.05,44.25l0.08,6.31c0.16,23.95-18.57,43.77-42.49,44.97"/>
<ellipse class="st2" cx="226.37" cy="162.23" rx="34.67" ry="34.67"/>
<ellipse transform="matrix(0.1874 -0.9823 0.9823 0.1874 19.3384 347.83)" class="st16" cx="219.9" cy="162.23" rx="24.2" ry="24.2"/>
<path class="st17" d="M141.62,150.96l13.5-7.11"/>
<path class="st16" d="M148.73,214.86c6.12,8.69,18.13,10.78,26.82,4.66c6.02-4.24,9.09-11.53,7.92-18.8
	c-2.56,4.63-8.07,9.27-15.26,12.22s-14.38,3.51-19.49,2V214.86z"/>
<path class="st18" d="M178.12,218.3c-5.9-2.57-12.78-0.12-15.74,5.59C168.3,224.53,173.73,222.85,178.12,218.3L178.12,218.3z"/>
<path class="st13" d="M277.17,158.71c19.97-5.99,38.34-23.32,47.45-47.45c12.3-32.51,3.99-66.7-18.21-82.27"/>
<path class="st13" d="M268.94,147.85c14.3-15.1,21.57-39.14,17.57-64.7c-5.35-34.35-29.55-59.91-56.71-62.38"/>
<path class="st14" d="M263.27,132.59c-9.84-11.55-24.46-17.92-39.62-17.25"/>
<linearGradient id="SVGID_6_" gradientUnits="userSpaceOnUse" x1="2373.2163" y1="518.0477" x2="2536.0767" y2="518.0477" gradientTransform="matrix(-0.9632 0.2689 -0.2689 -0.9632 2694.6179 21.7599)">
	<stop  offset="0" style="stop-color:#798E39"/>
	<stop  offset="0.2" style="stop-color:#7F963B"/>
	<stop  offset="0.7" style="stop-color:#8CA440"/>
	<stop  offset="1" style="stop-color:#91AA42"/>
</linearGradient>
<path class="st19" d="M204.96,228.44l-42.73,0.32c-24.61,0.18-44.74-19.56-45.05-44.17v-6.39c-0.13-24.58,19.59-44.66,44.17-44.97
	l74.52-0.72c24.64-0.18,44.79,19.61,45.05,44.25l0.08,6.31c0.16,23.95-18.57,43.77-42.49,44.97"/>
<ellipse class="st2" cx="226.37" cy="162.23" rx="34.67" ry="34.67"/>
<ellipse transform="matrix(0.1874 -0.9823 0.9823 0.1874 19.3384 347.83)" class="st16" cx="219.9" cy="162.23" rx="24.2" ry="24.2"/>
<path class="st17" d="M141.62,150.96l13.5-7.11"/>
<path class="st16" d="M148.73,214.86c6.12,8.69,18.13,10.78,26.82,4.66c6.02-4.24,9.09-11.53,7.92-18.8
	c-2.56,4.63-8.07,9.27-15.26,12.22s-14.38,3.51-19.49,2V214.86z"/>
<path class="st18" d="M178.12,218.3c-5.9-2.57-12.78-0.12-15.74,5.59C168.3,224.53,173.73,222.85,178.12,218.3L178.12,218.3z"/>
<path class="st20" d="M211.43,252.49l-8.23,0.88"/>
<linearGradient id="SVGID_7_" gradientUnits="userSpaceOnUse" x1="398.0138" y1="29.5773" x2="398.0138" y2="-127.7755" gradientTransform="matrix(1.09 0.073 0.0532 -0.7945 -177.042 182.5685)">
	<stop  offset="0" style="stop-color:#FFFFFF;stop-opacity:0"/>
	<stop  offset="1" style="stop-color:#FFFFFF;stop-opacity:0.7"/>
</linearGradient>
<path class="st21" d="M273.33,214.54c1.68,5.11,2.4,10.62,2.08,16.21c-1.76,25.4-25.56,44.49-53.36,42.57
	c-17.06-0.9-32.56-10.2-41.37-24.84l-7.43,2.72c1.12,2.24,2.4,4.39,3.67,6.55c15.45,23.25,40.97,37.85,68.85,39.38
	c47.37,3.19,88.1-29.39,91.06-72.77c0.7-10.66-0.94-21.35-4.79-31.31l-58.71,21.57V214.54z"/>
<linearGradient id="SVGID_8_" gradientUnits="userSpaceOnUse" x1="48.885" y1="209.261" x2="164.9427" y2="209.261" gradientTransform="matrix(1 0 0 -1 0 402)">
	<stop  offset="0" style="stop-color:#FFFFFF;stop-opacity:0.7"/>
	<stop  offset="1" style="stop-color:#FFFFFF;stop-opacity:0"/>
</linearGradient>
<path class="st22" d="M164.94,268.94L48.89,166.54l48.8-50L164.94,268.94z"/>
<ellipse transform="matrix(0.1602 -0.9871 0.9871 0.1602 -76.8197 161.3176)" class="st23" cx="56.39" cy="125.8" rx="42.49" ry="42.49"/>
<g>
	<path class="st24" d="M23.72,150.25l3.51-3.59"/>
	<path class="st25" d="M34.51,139.46l39.7-39.78"/>
	<path class="st24" d="M77.8,96.09l3.59-3.59"/>
</g>
<g>
	<path class="st24" d="M27.88,155.92l3.59-3.59"/>
	<path class="st26" d="M38.82,144.97l40.26-40.26"/>
	<path class="st24" d="M82.75,101.04l3.59-3.59"/>
</g>
<path class="st27" d="M79.32,90.66c12.67,19.76,6.92,46.04-12.84,58.71c-13.98,8.96-31.89,8.96-45.87,0
	c12.67,19.76,38.95,25.5,58.71,12.84c19.76-12.67,25.5-38.95,12.84-58.71C88.85,98.34,84.47,93.96,79.32,90.66z"/>
<ellipse transform="matrix(0.1602 -0.9871 0.9871 0.1602 -76.8197 161.3176)" class="st23" cx="56.39" cy="125.8" rx="42.49" ry="42.49"/>
<g>
	<path class="st24" d="M23.72,150.25l3.51-3.59"/>
	<path class="st25" d="M34.51,139.46l39.7-39.78"/>
	<path class="st24" d="M77.8,96.09l3.59-3.59"/>
</g>
<g>
	<path class="st24" d="M27.88,155.92l3.59-3.59"/>
	<path class="st26" d="M38.82,144.97l40.26-40.26"/>
	<path class="st24" d="M82.75,101.04l3.59-3.59"/>
</g>
<path class="st27" d="M79.32,90.66c12.67,19.76,6.92,46.04-12.84,58.71c-13.98,8.96-31.89,8.96-45.87,0
	c12.67,19.76,38.95,25.5,58.71,12.84c19.76-12.67,25.5-38.95,12.84-58.71C88.85,98.34,84.47,93.96,79.32,90.66z"/>
</svg>
