<?xml version="1.0" encoding="utf-8"?>
<!-- Generator: Adobe Illustrator 23.0.0, SVG Export Plug-In . SVG Version: 6.00 Build 0)  -->
<svg version="1.1" id="Layer_1" xmlns="http://www.w3.org/2000/svg" xmlns:xlink="http://www.w3.org/1999/xlink" x="0px" y="0px"
	 viewBox="0 0 400 400" style="enable-background:new 0 0 400 400;" xml:space="preserve">
<style type="text/css">
	.st0{fill:none;stroke:#749948;stroke-width:15.7;stroke-miterlimit:10;}
	.st1{fill:none;stroke:#647331;stroke-width:10;stroke-linecap:round;stroke-linejoin:round;stroke-miterlimit:10;}
</style>
<path class="st0" d="M382.9,204.7l-87.9,37.8c-4.4,1.6-10.6-4.6-13.9-13.7c-3.2-9.2-2.4-17.9,2-19.5l87.9-37.8L382.9,204.7
	L382.9,204.7z"/>
<path class="st1" d="M277.2,158.7c20-6,38.3-23.3,47.5-47.4c12.3-32.5,4-66.7-18.2-82.3"/>
<path d="M394.2,212.6L375.6,161l-19.7,8.5c-6.8-18.4-16.8-35.2-29.4-49.7c1-2.2,2-4.4,2.8-6.7c12.8-33.9,4.4-71-20-88.1
	c-2.3-1.6-5.4-1-7,1.2c-1.6,2.3-1,5.4,1.2,7c20.8,14.6,27.6,46.7,16.4,76.4c-0.3,0.8-0.6,1.5-0.9,2.3c-8.1-8.1-17-15.4-26.7-21.6
	c-0.2-2.6-0.5-5.2-0.9-7.8c-5.6-35.9-31.3-63.9-61.2-66.6c-2.8-0.2-5.2,1.8-5.4,4.5c-0.3,2.8,1.8,5.2,4.5,5.4
	c25.3,2.3,47.3,26.7,52.2,58.1C259,71.7,233.3,64.8,206,64.8c-39.9,0-76.4,14.7-104.4,39c-6.9-14.2-20.4-24.9-37.1-27.6
	c-27.4-4.5-53.3,14.2-57.8,41.6c-2.2,13.3,1,26.6,8.9,37.5c7.9,10.9,19.5,18.1,32.8,20.3c1.8,0.3,3.7,0.5,5.5,0.6
	c-4.8,15.2-7.5,31.5-7.5,48.3C46.4,312.4,118,384,206,384c88,0,159.6-71.6,159.6-159.6c0-1.2,0-2.4,0-3.6l19-8.2H394.2z"/>
</svg>
