<?xml version="1.0" standalone="no"?>
<!DOCTYPE svg PUBLIC "-//W3C//DTD SVG 20010904//EN"
 "http://www.w3.org/TR/2001/REC-SVG-20010904/DTD/svg10.dtd">
<svg version="1.0" xmlns="http://www.w3.org/2000/svg"
 width="512.000000pt" height="512.000000pt" viewBox="0 0 512.000000 512.000000"
 preserveAspectRatio="xMidYMid meet">
<metadata>
Created by potrace 1.14, written by Peter Selinger 2001-2017
</metadata>
<g transform="translate(0.000000,512.000000) scale(0.100000,-0.100000)"
fill="#000000" stroke="none">
<path d="M2529 4459 c-319 -55 -582 -192 -816 -426 -68 -68 -123 -127 -123
-132 0 -5 -6 -16 -13 -23 -35 -36 -186 -297 -188 -325 -1 -5 -7 -24 -15 -43
-8 -19 -17 -43 -19 -55 -2 -11 -4 -21 -6 -22 -1 -2 -2 -6 -3 -10 -2 -5 -8 -28
-15 -53 -7 -25 -15 -54 -17 -65 -2 -11 -6 -31 -9 -45 -15 -71 -20 -138 -20
-270 0 -176 7 -237 40 -366 81 -310 244 -571 496 -790 39 -33 162 -118 189
-130 8 -4 23 -14 33 -22 9 -8 17 -11 17 -6 0 5 4 4 8 -2 10 -16 201 -98 255
-110 4 -1 9 -3 12 -4 3 -1 8 -3 13 -4 4 -2 25 -8 47 -14 22 -6 54 -14 70 -16
17 -3 41 -8 55 -11 160 -32 379 -26 529 16 88 24 241 88 241 100 0 5 6 9 13 9
39 0 236 167 302 255 17 22 32 42 35 45 15 15 48 68 54 88 4 12 12 22 17 22 5
0 9 9 9 20 0 11 5 20 10 20 6 0 10 8 10 18 0 10 4 22 9 28 11 10 51 126 57
164 3 14 7 32 10 40 19 52 26 284 11 387 -9 69 -51 201 -92 289 -62 135 -190
297 -300 379 -22 17 -42 33 -45 36 -5 6 -32 23 -125 74 -50 28 -170 75 -204
81 -14 3 -39 9 -56 14 -43 13 -127 22 -222 25 -142 3 -290 -47 -406 -138 -59
-46 -157 -161 -157 -184 0 -7 -5 -13 -11 -13 -5 0 -7 -4 -4 -10 3 -5 1 -10 -4
-10 -6 0 -10 -3 -9 -7 1 -5 -6 -25 -15 -46 -50 -115 -55 -294 -12 -422 37
-110 80 -181 160 -260 56 -55 168 -132 205 -141 3 0 12 -3 20 -7 92 -38 241
-49 303 -23 55 23 112 84 125 136 11 44 4 118 -15 155 -39 75 -91 106 -198
119 -116 14 -193 90 -201 197 -1 26 1 63 7 82 13 47 88 120 139 136 44 13 171
8 216 -9 13 -5 24 -8 24 -5 0 6 142 -55 156 -68 7 -7 37 -30 66 -51 198 -146
290 -444 212 -685 -19 -57 -55 -134 -69 -143 -5 -4 -6 -8 -2 -8 5 0 2 -6 -5
-14 -7 -8 -29 -34 -48 -59 -75 -96 -225 -184 -357 -212 -68 -14 -241 -15 -303
-1 -106 24 -126 29 -152 40 -9 4 -25 9 -35 11 -10 2 -19 4 -20 5 -2 2 -6 3
-10 4 -18 3 -149 71 -161 83 -7 7 -20 13 -28 13 -8 0 -14 3 -14 8 0 4 -17 18
-38 32 -20 13 -44 31 -53 40 -9 8 -31 29 -50 46 -53 48 -94 96 -145 171 -46
66 -121 216 -127 251 -1 9 -6 22 -9 28 -8 12 -26 87 -34 142 -3 20 -7 44 -10
52 -6 18 -6 215 0 250 3 14 7 41 10 60 3 19 8 46 11 60 4 14 7 30 8 35 2 6 6
16 10 23 5 6 6 12 2 12 -3 0 1 14 10 30 9 17 13 30 10 30 -3 0 2 11 11 24 8
14 16 29 16 33 2 20 87 175 108 193 3 3 18 22 33 42 57 77 167 176 263 236
128 81 263 129 435 157 44 7 254 7 289 1 14 -3 41 -7 60 -10 19 -2 46 -7 60
-10 14 -3 36 -8 50 -10 45 -7 174 -47 202 -62 15 -8 29 -14 30 -14 2 1 17 -4
33 -11 17 -7 33 -12 38 -11 4 1 7 -2 7 -7 0 -5 14 -12 30 -16 17 -4 30 -11 30
-16 0 -6 5 -7 10 -4 6 3 10 3 10 -2 0 -4 21 -19 48 -33 26 -14 53 -30 60 -37
7 -7 16 -13 20 -13 4 0 19 -10 34 -23 14 -12 39 -31 54 -42 77 -55 236 -228
312 -340 34 -52 138 -245 134 -252 -1 -2 7 -23 17 -47 95 -221 122 -557 66
-826 -3 -14 -7 -36 -10 -50 -2 -14 -16 -59 -30 -100 -14 -41 -27 -79 -28 -85
-2 -5 -9 -20 -15 -32 -7 -13 -11 -23 -8 -23 7 0 -90 -186 -104 -200 -11 -11
-50 -70 -50 -75 0 -4 -6 -12 -12 -19 -7 -7 -24 -28 -38 -47 -33 -45 -183 -195
-240 -239 -104 -83 -226 -152 -390 -223 -82 -35 -262 -80 -370 -92 -64 -7
-307 -7 -355 0 -71 11 -209 34 -230 38 -75 17 -222 62 -270 82 -36 15 -68 28
-75 29 -16 4 -161 80 -166 87 -3 5 -10 7 -15 4 -5 -4 -9 -1 -9 4 0 6 -4 11
-10 11 -5 0 -35 17 -66 37 -31 21 -64 43 -72 48 -21 13 -33 22 -58 43 -12 9
-37 28 -55 42 -35 26 -215 203 -259 255 -14 17 -54 70 -89 119 -222 313 -337
653 -357 1061 -5 107 -6 112 -26 150 -64 120 -241 150 -333 56 -35 -35 -44
-49 -38 -55 4 -3 2 -6 -4 -6 -38 0 -31 -273 14 -519 46 -255 169 -583 291
-775 122 -194 163 -248 292 -390 77 -86 218 -215 295 -270 14 -11 38 -30 53
-43 15 -13 32 -23 39 -23 6 0 13 -3 15 -7 4 -11 116 -83 128 -83 5 0 10 -4 10
-8 0 -5 16 -15 35 -22 20 -8 41 -20 47 -27 5 -7 14 -10 19 -7 5 3 9 0 9 -6 0
-6 5 -8 10 -5 5 3 10 1 10 -4 0 -6 3 -10 8 -9 4 1 32 -10 62 -24 112 -52 217
-94 263 -104 4 -1 8 -2 10 -4 1 -1 9 -3 17 -5 8 -2 46 -13 83 -24 38 -11 83
-22 100 -25 42 -7 75 -14 95 -20 9 -2 44 -8 77 -12 33 -3 71 -8 85 -11 14 -2
106 -6 205 -8 161 -3 228 1 345 19 19 3 49 8 65 10 109 16 326 88 470 157 111
53 285 160 331 203 7 6 24 20 39 30 85 62 259 239 314 320 8 12 17 23 20 26
16 14 61 80 61 89 0 6 3 11 8 11 4 0 16 17 27 38 11 20 22 39 25 42 6 5 76
147 120 242 12 27 23 56 25 65 2 10 4 19 5 21 2 1 3 5 5 10 1 4 5 15 9 24 4 9
9 22 10 30 2 7 5 20 9 28 17 47 47 190 65 305 9 63 8 433 -2 500 -57 395 -226
754 -490 1044 -37 40 -60 63 -156 151 -15 14 -42 36 -60 50 -18 14 -39 31 -46
38 -7 6 -17 12 -22 12 -6 0 -12 4 -14 9 -3 8 -83 62 -153 103 -29 17 -198 100
-240 118 -35 14 -90 35 -95 35 -3 0 -11 4 -17 8 -7 5 -13 6 -13 3 0 -3 -16 2
-35 10 -19 8 -38 14 -42 14 -5 0 -24 5 -43 10 -19 5 -46 11 -60 14 -14 3 -36
7 -50 11 -14 3 -47 8 -75 11 -27 4 -54 9 -59 12 -5 3 -90 6 -190 7 -139 2
-206 -2 -287 -16z"/>
</g>
</svg>
